<?xml version="1.0" encoding="utf-8"?>
<!-- Generator: Adobe Illustrator 23.0.2, SVG Export Plug-In . SVG Version: 6.00 Build 0)  -->
<svg version="1.1" id="Layer_1" xmlns="http://www.w3.org/2000/svg" xmlns:xlink="http://www.w3.org/1999/xlink" x="0px" y="0px"
	 viewBox="0 0 113.05 77.49" style="enable-background:new 0 0 113.05 77.49;" xml:space="preserve">
<style type="text/css">
	.st0{fill:#F0961E;}
	.st1{fill:#FBB040;}
	.st2{fill:#F5A532;}
	.st3{fill:#FFFFFF;}
</style>
<g>
	<path class="st0" d="M69.81,25.43l13.09-13.29l16.36,9.39l-5.69,12.09C93.58,33.63,83.76,26.8,69.81,25.43z"/>
	<path class="st1" d="M44.45,60.04c0,0,1.23,3.24,0.51,6.59c-0.21,0.96,0.04,1.95,0.67,2.7c0.63,0.75,1.56,1.17,2.54,1.14
		c7.56-0.24,21.47-1.57,28.79-7.78c5.47-4.64,2.19-7.99,2.19-7.99L44.45,60.04z"/>
	<path class="st1" d="M102.11,38.33c0,3.43-5.1,7.91-12.95,11.96c-4.72,2.44-10.43,4.72-16.62,6.53c-5.42,1.59-11.2,2.81-17.02,3.46
		c-3.01,0.34-6.02,0.52-8.99,0.52c-4.58,0-8.75-0.26-12.54-0.79c-6.21-0.83-11.37-2.33-15.46-4.41
		c-7.75-3.93-11.66-9.89-11.66-17.29c0-7.26,3.77-13.47,11.24-17.69c4.03-2.3,9.14-4,15.32-4.97c3.94-0.62,8.31-0.96,13.1-0.96
		c2.86,0,5.75,0.18,8.64,0.52c5.87,0.67,11.71,1.99,17.19,3.7c6.24,1.93,12,4.38,16.75,6.98C96.99,30.2,102.11,34.89,102.11,38.33z"
		/>
	<path class="st2" d="M18.53,55.62c4.09,2.07,9.24,3.58,15.46,4.41c3.79,0.52,7.97,0.79,12.54,0.79c2.97,0,5.99-0.18,8.99-0.52
		c5.82-0.65,11.6-1.87,17.02-3.46c6.19-1.81,11.9-4.1,16.62-6.53c7.85-4.05,12.95-8.54,12.95-11.96H6.87
		C6.87,45.73,10.78,51.69,18.53,55.62z"/>
	<path class="st3" d="M53.33,65.63c0,1.1-0.89,1.99-1.99,1.99c-1.1,0-1.99-0.89-1.99-1.99c0-1.1,0.89-1.99,1.99-1.99
		C52.43,63.64,53.33,64.53,53.33,65.63z"/>
	<path class="st3" d="M61.52,64.65c0,0.96-0.78,1.74-1.74,1.74c-0.96,0-1.74-0.78-1.74-1.74s0.78-1.74,1.74-1.74
		C60.74,62.91,61.52,63.68,61.52,64.65z"/>
	<path class="st3" d="M69.01,62.91c0,0.82-0.67,1.49-1.49,1.49c-0.83,0-1.49-0.67-1.49-1.49s0.67-1.49,1.49-1.49
		C68.35,61.41,69.01,62.08,69.01,62.91z"/>
	<path class="st3" d="M18.64,23.67c0,0,1.04-0.45,2.85-1.24c0.92-0.37,2-0.89,3.33-1.29c1.32-0.41,2.79-0.98,4.45-1.39
		c0.83-0.2,1.69-0.42,2.59-0.64c0.89-0.23,1.83-0.43,2.79-0.57c0.97-0.16,1.96-0.32,2.98-0.49c1.02-0.19,2.07-0.22,3.13-0.33
		c2.13-0.24,4.34-0.27,6.59-0.31c1.12-0.01,2.26,0.08,3.39,0.11l1.71,0.07l1.7,0.16c1.13,0.13,2.27,0.21,3.4,0.38
		c1.12,0.17,2.24,0.35,3.35,0.52c1.11,0.17,2.19,0.43,3.27,0.65c0.54,0.11,1.07,0.23,1.6,0.34c0.52,0.13,1.05,0.27,1.56,0.4
		c1.03,0.27,2.06,0.5,3.04,0.8c0.98,0.3,1.94,0.59,2.87,0.88c1.86,0.58,3.6,1.21,5.19,1.8c1.58,0.61,3.04,1.16,4.31,1.72
		c1.27,0.54,2.38,1.01,3.27,1.43c1.79,0.84,2.81,1.32,2.81,1.32s-1.08-0.33-2.97-0.9c-0.94-0.29-2.09-0.63-3.41-1.03
		c-1.31-0.42-2.81-0.8-4.42-1.29c-1.63-0.44-3.38-0.93-5.25-1.4c-1.87-0.47-3.84-0.93-5.89-1.36c-0.51-0.11-1.03-0.22-1.55-0.34
		c-0.52-0.09-1.05-0.18-1.58-0.28c-1.06-0.17-2.13-0.4-3.21-0.56c-1.09-0.15-2.18-0.31-3.28-0.47c-1.1-0.16-2.21-0.22-3.32-0.34
		l-1.66-0.17l-1.66-0.09c-1.11-0.05-2.21-0.14-3.3-0.15c-2.19,0.03-4.35-0.07-6.43,0.11c-1.04,0.07-2.07,0.08-3.07,0.19
		c-1,0.11-1.98,0.21-2.93,0.31c-0.48,0.06-0.95,0.09-1.41,0.16c-0.46,0.08-0.91,0.15-1.36,0.23c-0.89,0.14-1.75,0.28-2.58,0.42
		c-0.84,0.11-1.6,0.33-2.35,0.48c-0.75,0.16-1.46,0.32-2.12,0.46c-1.34,0.26-2.49,0.63-3.44,0.89
		C19.73,23.37,18.64,23.67,18.64,23.67z"/>
	<path class="st0" d="M89.16,46.87c-4.72,2.44-10.43,4.72-16.62,6.53c-5.42,1.59-11.2,2.81-17.02,3.46
		c-3.01,0.34-6.02,0.52-8.99,0.52c-4.58,0-8.75-0.26-12.54-0.79c-6.21-0.83-11.37-2.33-15.46-4.4c-7.15-3.62-11.01-8.98-11.58-15.58
		c-0.05,0.56-0.08,1.13-0.08,1.71c0,7.4,3.9,13.36,11.66,17.29c4.09,2.07,9.24,3.58,15.46,4.41c3.79,0.52,7.97,0.79,12.54,0.79
		c2.97,0,5.99-0.18,8.99-0.52c5.82-0.65,11.6-1.87,17.02-3.46c6.19-1.81,11.9-4.1,16.62-6.53c7.85-4.05,12.95-8.54,12.95-11.96
		c0-0.54-0.14-1.12-0.39-1.72C100.42,39.75,95.77,43.46,89.16,46.87z"/>
	<polygon class="st0" points="74.64,34.91 113.05,38.33 74.64,41.74 	"/>
</g>
</svg>
